<svg width="18" height="18" viewBox="0 0 18 18" fill="none" xmlns="http://www.w3.org/2000/svg">
<path d="M2.23077 10.617V16.3617C2.23077 16.531 2.29561 16.6933 2.41102 16.813C2.52642 16.9327 2.68295 17 2.84616 17H15.1539C15.3171 17 15.4736 16.9327 15.589 16.813C15.7044 16.6933 15.7692 16.531 15.7692 16.3617V10.617" stroke="#000001" stroke-width="1.5" stroke-linecap="round" stroke-linejoin="round"/>
<path d="M16.3846 8.02129H1.61538C1.45217 8.02129 1.29565 7.95405 1.18024 7.83434C1.06483 7.71464 1 7.55228 1 7.383V4.82981L2.50154 1.70216C2.60475 1.48969 2.76316 1.31136 2.95888 1.1873C3.1546 1.06324 3.37986 0.998375 3.60923 1.00003H14.3908C14.6201 0.998375 14.8454 1.06324 15.0411 1.1873C15.2368 1.31136 15.3952 1.48969 15.4985 1.70216L17 4.82981V7.383C17 7.55228 16.9352 7.71464 16.8198 7.83434C16.7044 7.95405 16.5478 8.02129 16.3846 8.02129Z" stroke="#000001" stroke-width="1.5" stroke-linecap="round" stroke-linejoin="round"/>
<path d="M10.2308 10.617V17" stroke="#000001" stroke-width="1.5" stroke-linecap="round" stroke-linejoin="round"/>
<path d="M2.23077 12.5319H10.2308" stroke="#000001" stroke-width="1.5" stroke-linecap="round" stroke-linejoin="round"/>
<path d="M1 4.82983H17" stroke="#000001" stroke-width="1.5" stroke-linecap="round" stroke-linejoin="round"/>
</svg>
