<svg width="20" height="20" viewBox="0 0 20 20" fill="none" xmlns="http://www.w3.org/2000/svg">
<path fill-rule="evenodd" clip-rule="evenodd" d="M3.172 5.17199C3.92211 4.4221 4.93934 4.00084 6 4.00084C7.06066 4.00084 8.07789 4.4221 8.828 5.17199L10 6.34299L11.172 5.17199C11.541 4.78995 11.9824 4.48522 12.4704 4.27558C12.9584 4.06595 13.4833 3.9556 14.0144 3.95099C14.5455 3.94637 15.0722 4.04758 15.5638 4.2487C16.0554 4.44983 16.502 4.74684 16.8776 5.12241C17.2531 5.49798 17.5502 5.94459 17.7513 6.43617C17.9524 6.92776 18.0536 7.45448 18.049 7.98559C18.0444 8.51671 17.934 9.04159 17.7244 9.52961C17.5148 10.0176 17.21 10.459 16.828 10.828L10 17.657L3.172 10.828C2.42212 10.0779 2.00085 9.06065 2.00085 7.99999C2.00085 6.93933 2.42212 5.9221 3.172 5.17199V5.17199Z" stroke="black" stroke-width="1.5" stroke-linejoin="round"/>
</svg>
