<svg width="30" height="30" viewBox="0 0 30 30" fill="none" xmlns="http://www.w3.org/2000/svg">
<path fill-rule="evenodd" clip-rule="evenodd" d="M10 2.5H19.625C23.7671 2.5 27.125 5.85786 27.125 10V19.625C27.125 23.7671 23.7671 27.125 19.625 27.125H10C5.85786 27.125 2.5 23.7671 2.5 19.625V10C2.5 5.85786 5.85786 2.5 10 2.5ZM25.25 10C25.2431 6.89625 22.7287 4.38187 19.625 4.375H10C6.89625 4.38187 4.38187 6.89625 4.375 10V19.625C4.38187 22.7287 6.89625 25.2431 10 25.25H19.625C22.7287 25.2431 25.2431 22.7287 25.25 19.625V10Z" fill="#333333"/>
<path fill-rule="evenodd" clip-rule="evenodd" d="M9.4375 14.8125C9.44437 11.8468 11.8468 9.44437 14.8125 9.4375C17.7782 9.44437 20.1806 11.8468 20.1875 14.8125C20.1875 17.781 17.781 20.1875 14.8125 20.1875C11.844 20.1875 9.4375 17.781 9.4375 14.8125ZM18.3125 14.8125C18.3125 12.8795 16.7455 11.3125 14.8125 11.3125C12.8824 11.3194 11.3194 12.8824 11.3125 14.8125C11.3125 16.7455 12.8795 18.3125 14.8125 18.3125C16.7455 18.3125 18.3125 16.7455 18.3125 14.8125Z" fill="#333333"/>
<path d="M19.3875 8.13125C19.3875 7.38221 19.9947 6.775 20.7437 6.775C21.4928 6.775 22.1 7.38221 22.1 8.13125C22.1 8.88029 21.4928 9.4875 20.7437 9.4875C19.9947 9.4875 19.3875 8.88029 19.3875 8.13125Z" fill="#333333"/>
</svg>
