<svg width="22" height="20" viewBox="0 0 22 20" fill="none" xmlns="http://www.w3.org/2000/svg">
<path d="M6 3.85884V4.60884C6.26108 4.60884 6.50337 4.47308 6.63967 4.25041L6 3.85884ZM7.75 1V0.25C7.48892 0.25 7.24663 0.385766 7.11033 0.608436L7.75 1ZM14.25 1L14.8897 0.608436C14.7534 0.385766 14.5111 0.25 14.25 0.25V1ZM16 3.85884L15.3603 4.25041C15.4966 4.47308 15.7389 4.60884 16 4.60884V3.85884ZM1.75 16.0089V6.24121H0.25V16.0089H1.75ZM3.5 4.60884H6V3.10884H3.5V4.60884ZM6.63967 4.25041L8.38967 1.39156L7.11033 0.608436L5.36033 3.46728L6.63967 4.25041ZM7.75 1.75H14.25V0.25H7.75V1.75ZM13.6103 1.39156L15.3603 4.25041L16.6397 3.46728L14.8897 0.608436L13.6103 1.39156ZM16 4.60884H18.5V3.10884H16V4.60884ZM20.25 6.24121V16.0089H21.75V6.24121H20.25ZM20.25 16.0089C20.25 16.8768 19.501 17.6413 18.5 17.6413V19.1413C20.2605 19.1413 21.75 17.7725 21.75 16.0089H20.25ZM18.5 4.60884C19.501 4.60884 20.25 5.37333 20.25 6.24121H21.75C21.75 4.4776 20.2605 3.10884 18.5 3.10884V4.60884ZM1.75 6.24121C1.75 5.37333 2.49903 4.60884 3.5 4.60884V3.10884C1.73955 3.10884 0.25 4.4776 0.25 6.24121H1.75ZM3.5 17.6413C2.49903 17.6413 1.75 16.8768 1.75 16.0089H0.25C0.25 17.7725 1.73955 19.1413 3.5 19.1413V17.6413ZM14 10.5295C14 12.0552 12.6913 13.353 11 13.353V14.853C13.4508 14.853 15.5 12.951 15.5 10.5295H14ZM11 13.353C9.30867 13.353 8 12.0552 8 10.5295H6.5C6.5 12.951 8.54919 14.853 11 14.853V13.353ZM8 10.5295C8 9.00373 9.30867 7.70593 11 7.70593V6.20593C8.54919 6.20593 6.5 8.108 6.5 10.5295H8ZM11 7.70593C12.6913 7.70593 14 9.00373 14 10.5295H15.5C15.5 8.108 13.4508 6.20593 11 6.20593V7.70593ZM18.5 17.6413H3.5V19.1413H18.5V17.6413Z" fill="black"/>
</svg>
